<svg xmlns="http://www.w3.org/2000/svg" viewBox="0 0 64 64" width="64" height="64">
<title>Redstone Family Lawyers</title>
<path fill="#6F1B1A" d="M12.8 0L51.2 0C58.27 0 64 5.73 64 12.8L64 51.2C64 58.27 58.27 64 51.2 64L12.8 64C5.73 64 0 58.27 0 51.2L0 12.8C0 5.73 5.73 0 12.8 0Z"/>
<path fill="#FFFFFF" d="M6.07 6.84L33.54 6.84C44.04 6.84 49.72 11.29 49.72 19.5C49.72 27.22 44.66 31.85 37.74 31.85L48.98 49.44C51.14 52.84 54.54 55.92 58.24 56.36C57.31 56.97 56.08 57.16 54.84 57.16L43.92 57.16L26.01 30.18C32.93 29.81 38.61 25.98 38.61 19.81C38.61 13.63 34.78 8.82 27.99 8.82L20.45 8.82L20.45 33.57L11.19 46.11L11.19 14.25C11.19 10.42 8.85 8.45 6.25 7.95ZM20.7 36.97C22.18 37.53 23.36 38.39 24.1 39.63L33.67 57.16L5.76 57.16ZM31.07 41.79L38.3 55L34.41 55L28.79 44.81Z"/>
</svg>
